<svg width="49" height="49" viewBox="0 0 49 49" fill="none" xmlns="http://www.w3.org/2000/svg">
<path d="M0 1C0 0.447715 0.447715 0 1 0H48C48.5523 0 49 0.447715 49 1V48C49 48.5523 48.5523 49 48 49H1C0.447715 49 0 48.5523 0 48V1Z" fill="black"/>
<path d="M22.4963 9.21811H25.8763V14.7301H32.7923L32.2723 19.0981H25.8763V32.7741C25.8763 34.2994 26.1536 35.3741 26.7083 35.9981C27.263 36.5874 28.1123 36.8821 29.2563 36.8821C30.435 36.8821 31.6136 36.5181 32.7923 35.7901L34.3523 39.7941C32.619 41.0074 30.4176 41.6141 27.7483 41.6141C26.1883 41.6141 24.871 41.4061 23.7963 40.9901C22.7216 40.6088 21.9243 40.1754 21.4043 39.6901C20.8843 39.2048 20.4856 38.4941 20.2083 37.5581C19.931 36.6221 19.775 35.8941 19.7403 35.3741C19.7056 34.8194 19.6883 34.0221 19.6883 32.9821V19.0981H15.9963L16.5163 15.3021C18.1456 15.1634 19.3763 14.5914 20.2083 13.5861C21.0403 12.5461 21.803 11.0901 22.4963 9.21811Z" fill="white"/>
</svg>
